<svg width="32" height="28" viewBox="0 0 32 28" fill="none" xmlns="http://www.w3.org/2000/svg">
<path d="M27.3472 28H4.6525C2.99504 28 1.45036 27.1381 0.621279 25.7501C-0.207093 24.3621 -0.207093 22.6381 0.621279 21.2504L11.9686 2.24987C12.7974 0.862202 14.3421 0 15.9999 0C17.6577 0 19.202 0.862202 20.0311 2.24987L31.3785 21.2504C32.2072 22.6377 32.2072 24.3621 31.3785 25.7501C30.5497 27.1378 29.005 28 27.3472 28ZM15.9999 1.30279C14.8217 1.30279 13.7243 1.9152 13.1357 2.90126L1.78871 21.9018C1.19982 22.8875 1.19982 24.1127 1.78871 25.0991C2.3776 26.0848 3.47507 26.6976 4.6525 26.6976H27.3472C28.525 26.6976 29.6225 26.0851 30.211 25.0991C30.8003 24.113 30.8003 22.8879 30.211 21.9018L18.8637 2.90126C18.2748 1.9152 17.1773 1.30279 15.9999 1.30279Z" fill="#F12632"/>
</svg>
