<svg width="23" height="23" viewBox="0 0 23 23" fill="none" xmlns="http://www.w3.org/2000/svg">
<path d="M5.5864 11.68C6.01512 11.2545 6.58796 11.0055 7.19153 10.9822C7.7951 10.959 8.38541 11.1632 8.8456 11.5544L12.108 14.3504L14.348 12.3856C14.8066 11.9848 15.4002 11.7729 16.009 11.7927C16.6177 11.8124 17.1963 12.0623 17.628 12.492L22.4 17.24V2.4C22.4 1.76348 22.1471 1.15303 21.6971 0.702944C21.247 0.252856 20.6365 0 20 0H2.4C1.76348 0 1.15303 0.252856 0.702944 0.702944C0.252857 1.15303 0 1.76348 0 2.4V17.2688L5.5864 11.68ZM12.8 3.2C13.4329 3.2 14.0516 3.38768 14.5778 3.7393C15.1041 4.09092 15.5142 4.59069 15.7564 5.17541C15.9986 5.76014 16.062 6.40355 15.9385 7.02429C15.815 7.64503 15.5103 8.21521 15.0627 8.66274C14.6152 9.11027 14.045 9.41504 13.4243 9.53851C12.8036 9.66199 12.1601 9.59862 11.5754 9.35641C10.9907 9.11421 10.4909 8.70406 10.1393 8.17782C9.78768 7.65159 9.6 7.0329 9.6 6.4C9.6 5.55131 9.93714 4.73737 10.5373 4.13726C11.1374 3.53714 11.9513 3.2 12.8 3.2Z" fill="#147BFF"/>
<path d="M16.496 13.6265C16.3524 13.4822 16.1592 13.398 15.9557 13.3912C15.7522 13.3843 15.5538 13.4554 15.4008 13.5897L13.3352 15.4041L15.1872 16.9921C15.2715 17.059 15.3415 17.1422 15.3929 17.2367C15.4443 17.3312 15.4761 17.4351 15.4864 17.5422C15.4967 17.6493 15.4853 17.7574 15.4529 17.86C15.4205 17.9626 15.3677 18.0576 15.2977 18.1393C15.2277 18.221 15.142 18.2878 15.0456 18.3356C14.9492 18.3834 14.8442 18.4113 14.7368 18.4176C14.6293 18.4239 14.5218 18.4084 14.4205 18.3721C14.3192 18.3359 14.2262 18.2796 14.1472 18.2065L7.8048 12.7665C7.65168 12.6354 7.45472 12.567 7.25329 12.5748C7.05187 12.5827 6.86084 12.6663 6.7184 12.8089L0 19.5305V19.9993C0 20.6359 0.252857 21.2463 0.702944 21.6964C1.15303 22.1465 1.76348 22.3993 2.4 22.3993H20C20.6365 22.3993 21.247 22.1465 21.6971 21.6964C22.1471 21.2463 22.4 20.6359 22.4 19.9993V19.4953L16.496 13.6265Z" fill="#147BFF"/>
</svg>
