<svg width="33" height="40" viewBox="0 0 33 40" fill="none" xmlns="http://www.w3.org/2000/svg">
<path d="M16.0993 15.9879C12.5972 15.9879 9.74805 18.8371 9.74805 22.3392C9.74805 25.8414 12.5972 28.6905 16.0993 28.6905C19.6014 28.6905 22.4506 25.8413 22.4506 22.3392C22.4506 18.837 19.6014 15.9879 16.0993 15.9879ZM19.556 21.6257L16.2238 24.9579C15.9613 25.2205 15.6163 25.3517 15.2713 25.3517C14.9263 25.3517 14.5813 25.2205 14.3188 24.9579L12.6426 23.2818C12.1158 22.755 12.1158 21.9051 12.6426 21.3784C13.1694 20.8516 14.0192 20.8516 14.546 21.3784L15.2697 22.102L17.6493 19.7224C18.1761 19.1956 19.0259 19.1956 19.5527 19.7224C20.0812 20.2475 20.0811 21.099 19.556 21.6257Z" fill="#0B57D0"/>
<path d="M29.5119 3.48694H28.0983V5.62764C28.0983 6.38159 27.4925 6.97398 26.752 6.97398C26.0115 6.97398 25.4056 6.38159 25.4056 5.62764V3.48694H21.003V5.62764C21.003 6.38159 20.3972 6.97398 19.6566 6.97398C18.9027 6.97398 18.3103 6.38159 18.3103 5.62764V3.48694H13.8943V5.62764C13.8943 6.38159 13.3019 6.97398 12.548 6.97398C11.8075 6.97398 11.2016 6.38159 11.2016 5.62764V3.48694H6.79899V5.62764C6.79899 6.38159 6.19316 6.97398 5.45265 6.97398C4.71214 6.97398 4.10631 6.38159 4.10631 5.62764V3.48694H2.69268C1.19822 3.48694 0 4.69864 0 6.17962V36.351C0 37.832 1.19822 39.0437 2.69268 39.0437H29.5118C31.0062 39.0437 32.2044 37.832 32.2044 36.351V6.17962C32.2044 4.69864 31.0064 3.48694 29.5119 3.48694ZM16.1024 31.3814C11.116 31.3814 7.05844 27.3255 7.05844 22.3374C7.05844 17.351 11.1143 13.2935 16.1024 13.2935C21.0888 13.2935 25.1463 17.3493 25.1463 22.3374C25.1463 27.3255 21.0888 31.3814 16.1024 31.3814Z" fill="#0B57D0"/>
<path d="M28.097 1.34634C28.097 0.605831 27.4911 0 26.7506 0C26.0101 0 25.4043 0.605831 25.4043 1.34634V3.48704H28.097V1.34634Z" fill="#0B57D0"/>
<path d="M20.9974 1.34634C20.9974 0.605831 20.3915 0 19.651 0C18.8971 0 18.3047 0.605831 18.3047 1.34634V3.48704H20.9974V1.34634Z" fill="#0B57D0"/>
<path d="M13.8899 1.34634C13.8899 0.605831 13.2976 0 12.5436 0C11.8031 0 11.1973 0.605831 11.1973 1.34634V3.48704H13.8899V1.34634Z" fill="#0B57D0"/>
<path d="M6.79229 1.34634C6.79229 0.605831 6.18646 0 5.44595 0C4.70544 0 4.09961 0.605831 4.09961 1.34634V3.48704H6.79229V1.34634Z" fill="#0B57D0"/>
</svg>
