<svg width="30" height="30" viewBox="0 0 30 30" fill="none" xmlns="http://www.w3.org/2000/svg">
<path d="M2.50132 14.999C2.50132 15.5807 2.97427 16.0537 3.55598 16.0537H18.3127L15.7733 18.5931C15.3597 19.0067 15.3597 19.6725 15.7733 20.0861C15.9793 20.2921 16.2496 20.3943 16.5198 20.3943C16.7901 20.3943 17.0603 20.2937 17.2663 20.0861L21.6068 15.7456C21.6579 15.6945 21.6991 15.645 21.737 15.5857C21.7453 15.5725 21.7502 15.561 21.7585 15.5478C21.7881 15.5017 21.8128 15.4555 21.8343 15.4045C21.8425 15.383 21.8474 15.3616 21.8507 15.3451C21.8672 15.299 21.8837 15.2561 21.8936 15.21C21.9068 15.1424 21.915 15.0716 21.915 15.004C21.915 14.9364 21.9068 14.8656 21.8936 14.798C21.8853 14.7519 21.8689 14.7057 21.8507 14.6596C21.8425 14.6382 21.8425 14.6217 21.8343 14.6003C21.8128 14.5492 21.7881 14.503 21.7585 14.4569C21.7502 14.4437 21.7453 14.4322 21.737 14.419C21.6991 14.3597 21.653 14.3086 21.6068 14.2592L17.2663 9.91862C16.8527 9.50499 16.1869 9.50499 15.7733 9.91862C15.3597 10.3322 15.3597 10.998 15.7733 11.4116L18.3127 13.951L3.55594 13.9494C2.97423 13.9494 2.50128 14.4223 2.50128 15.004L2.50132 14.999Z" fill="#333333"/>
<path d="M27.5 22.2516V7.74839C27.5 4.85467 25.1468 2.5 22.2516 2.5H7.74839C4.85467 2.5 2.5 4.85319 2.5 7.74839V10.6009C2.5 11.1826 2.97295 11.6556 3.55466 11.6556C4.13636 11.6556 4.60931 11.1826 4.60931 10.6009V7.74839C4.60931 6.01808 6.01825 4.60914 7.74856 4.60914H22.2518C23.9821 4.60914 25.391 6.01808 25.391 7.74839V22.2516C25.391 23.9819 23.9821 25.3909 22.2518 25.3909H7.74856C6.01825 25.3909 4.60931 23.9819 4.60931 22.2516V19.3958C4.60931 18.8141 4.13636 18.3412 3.55466 18.3412C2.97295 18.3412 2.5 18.8141 2.5 19.3958V22.2516C2.5 25.1453 4.85319 27.5 7.74839 27.5H22.2516C25.1453 27.5 27.5 25.1468 27.5 22.2516Z" fill="#333333"/>
</svg>
