<svg width="36" height="36" viewBox="0 0 36 36" fill="none" xmlns="http://www.w3.org/2000/svg">
<path d="M23.0625 2.8125C26.7904 2.8125 29.8125 5.83458 29.8125 9.5625V23.0625C29.8125 26.7904 26.7904 29.8125 23.0625 29.8125H9.5625C5.83458 29.8125 2.8125 26.7904 2.8125 23.0625V9.5625C2.8125 5.83458 5.83458 2.8125 9.5625 2.8125H23.0625ZM8.4375 24.1875C7.81618 24.1875 7.3125 24.6912 7.3125 25.3125C7.3125 25.9338 7.81618 26.4375 8.4375 26.4375H17.4375C18.0588 26.4375 18.5625 25.9338 18.5625 25.3125C18.5625 24.6912 18.0588 24.1875 17.4375 24.1875H8.4375ZM21.9375 24.1875C21.3162 24.1875 20.8125 24.6912 20.8125 25.3125C20.8125 25.9338 21.3162 26.4375 21.9375 26.4375H24.1875C24.8088 26.4375 25.3125 25.9338 25.3125 25.3125C25.3125 24.6912 24.8088 24.1875 24.1875 24.1875H21.9375ZM8.4375 18.5625C7.81618 18.5625 7.3125 19.0662 7.3125 19.6875C7.3125 20.3088 7.81618 20.8125 8.4375 20.8125H17.4375C18.0588 20.8125 18.5625 20.3088 18.5625 19.6875C18.5625 19.0662 18.0588 18.5625 17.4375 18.5625H8.4375ZM21.9375 18.5625C21.3162 18.5625 20.8125 19.0662 20.8125 19.6875C20.8125 20.3088 21.3162 20.8125 21.9375 20.8125H24.1875C24.8088 20.8125 25.3125 20.3088 25.3125 19.6875C25.3125 19.0662 24.8088 18.5625 24.1875 18.5625H21.9375ZM8.4375 12.9375C7.81618 12.9375 7.3125 13.4412 7.3125 14.0625C7.3125 14.6838 7.81618 15.1875 8.4375 15.1875H17.4375C18.0588 15.1875 18.5625 14.6838 18.5625 14.0625C18.5625 13.4412 18.0588 12.9375 17.4375 12.9375H8.4375ZM21.9375 12.9375C21.3162 12.9375 20.8125 13.4412 20.8125 14.0625C20.8125 14.6838 21.3162 15.1875 21.9375 15.1875H24.1875C24.8088 15.1875 25.3125 14.6838 25.3125 14.0625C25.3125 13.4412 24.8088 12.9375 24.1875 12.9375H21.9375ZM8.4375 7.3125C7.81618 7.3125 7.3125 7.81618 7.3125 8.4375C7.3125 9.05882 7.81618 9.5625 8.4375 9.5625H17.4375C18.0588 9.5625 18.5625 9.05882 18.5625 8.4375C18.5625 7.81618 18.0588 7.3125 17.4375 7.3125H8.4375ZM21.9375 7.3125C21.3162 7.3125 20.8125 7.81618 20.8125 8.4375C20.8125 9.05882 21.3162 9.5625 21.9375 9.5625H24.1875C24.8088 9.5625 25.3125 9.05882 25.3125 8.4375C25.3125 7.81618 24.8088 7.3125 24.1875 7.3125H21.9375Z" fill="#0B57D0"/>
<circle cx="25.3125" cy="25.3125" r="7.03125" fill="#0B57D0" stroke="#D3E3FD" stroke-width="1.6875"/>
<path d="M22.4958 21.5692C22.2396 21.313 21.8234 21.313 21.5672 21.5692C21.3109 21.8255 21.3109 22.2416 21.5672 22.4979L24.3839 25.3125L21.5692 28.1292C21.313 28.3854 21.313 28.8016 21.5692 29.0578C21.8255 29.3141 22.2416 29.3141 22.4979 29.0578L25.3125 26.2411L28.1292 29.0558C28.3854 29.312 28.8016 29.312 29.0578 29.0558C29.3141 28.7995 29.3141 28.3834 29.0578 28.1271L26.2411 25.3125L29.0558 22.4958C29.312 22.2396 29.312 21.8234 29.0558 21.5672C28.7995 21.3109 28.3834 21.3109 28.1271 21.5672L25.3125 24.3839L22.4958 21.5692Z" fill="#D3E3FD"/>
</svg>
