<svg width="46" height="46" viewBox="0 0 46 46" fill="none" xmlns="http://www.w3.org/2000/svg">
<path d="M39.9998 15.0699V13.2002C39.9998 11.4816 38.6022 10.0841 36.8836 10.0841H36.2604V8.83762C36.2604 7.46342 35.1417 6.34473 33.7675 6.34473C32.3933 6.34473 31.2746 7.46342 31.2746 8.83762C31.2746 9.18195 31.5535 9.46084 31.8979 9.46084C32.2422 9.46084 32.5211 9.18195 32.5211 8.83762C32.5211 8.1505 33.0804 7.59117 33.7675 7.59117C34.4547 7.59117 35.014 8.1505 35.014 8.83762V11.3305C35.014 12.0176 34.4547 12.577 33.7675 12.577C33.0804 12.577 32.5211 12.0176 32.5211 11.3305H33.1443C33.4886 11.3305 33.7675 11.0516 33.7675 10.7073C33.7675 10.363 33.4886 10.0841 33.1443 10.0841H25.6656V8.83762C25.6656 7.46342 24.5469 6.34473 23.1727 6.34473C21.7985 6.34473 20.6798 7.46342 20.6798 8.83762C20.6798 9.18195 20.9587 9.46084 21.3031 9.46084C21.6474 9.46084 21.9263 9.18195 21.9263 8.83762C21.9263 8.1505 22.4856 7.59117 23.1727 7.59117C23.8599 7.59117 24.4192 8.1505 24.4192 8.83762V11.3305C24.4192 12.0176 23.8599 12.577 23.1727 12.577C22.4856 12.577 21.9263 12.0176 21.9263 11.3305H22.5495C22.8938 11.3305 23.1727 11.0516 23.1727 10.7073C23.1727 10.363 22.8938 10.0841 22.5495 10.0841H15.0708V8.83762C15.0708 7.46342 13.9521 6.34473 12.5779 6.34473C11.2037 6.34473 10.085 7.46342 10.085 8.83762C10.085 9.18195 10.3639 9.46084 10.7083 9.46084C11.0526 9.46084 11.3315 9.18195 11.3315 8.83762C11.3315 8.1505 11.8908 7.59117 12.5779 7.59117C13.2651 7.59117 13.8244 8.1505 13.8244 8.83762V11.3305C13.8244 12.0176 13.2651 12.577 12.5779 12.577C11.8908 12.577 11.3315 12.0176 11.3315 11.3305H11.9547C12.299 11.3305 12.5779 11.0516 12.5779 10.7073C12.5779 10.363 12.299 10.0841 11.9547 10.0841H9.46182C7.74328 10.0841 6.3457 11.4816 6.3457 13.2002V15.0699H39.9998Z" fill="#0B57D0"/>
<path d="M6.3457 16.3149V36.8811C6.3457 38.5997 7.74328 39.9972 9.46182 39.9972H36.8836C38.6022 39.9972 39.9998 38.5997 39.9998 36.8811V16.3149H6.3457ZM30.4318 26.5793L24.3835 32.6276C23.0467 33.9645 20.881 33.9645 19.5441 32.6276L15.9153 28.9973C14.9135 27.9955 14.9135 26.3705 15.9153 25.3686C16.9172 24.3668 18.5422 24.3668 19.5441 25.3686L21.9637 27.7883L26.8031 22.9489C27.805 21.947 29.43 21.947 30.4319 22.9489C31.4337 23.9507 31.4337 25.5759 30.4318 26.5793Z" fill="#0B57D0"/>
</svg>
