<svg width="50" height="50" viewBox="0 0 50 50" fill="none" xmlns="http://www.w3.org/2000/svg">
<path d="M35.4173 39.5831C36.5979 39.5831 37.5791 39.2358 38.3611 38.5414C39.143 37.847 39.5507 36.8053 39.584 35.4164C39.6187 34.2358 39.2284 33.2463 38.4132 32.4476C37.5979 31.649 36.5993 31.2497 35.4173 31.2497C34.2354 31.2497 33.2458 31.649 32.4486 32.4476C31.6513 33.2463 31.252 34.2358 31.2507 35.4164C31.2493 36.597 31.6486 37.5865 32.4486 38.3851C33.2486 39.1838 34.2382 39.5831 35.4173 39.5831ZM43.5423 46.4581L39.6882 42.6039C39.0632 42.9858 38.3944 43.2726 37.6819 43.4643C36.9694 43.656 36.2145 43.7511 35.4173 43.7497C33.1257 43.7497 31.1638 42.9338 29.5319 41.3018C27.9 39.6699 27.084 37.7081 27.084 35.4164C27.084 33.1247 27.9 31.1629 29.5319 29.531C31.1638 27.899 33.1257 27.0831 35.4173 27.0831C37.709 27.0831 39.6708 27.899 41.3027 29.531C42.9347 31.1629 43.7507 33.1247 43.7507 35.4164C43.7507 36.215 43.6555 36.9706 43.4652 37.6831C43.275 38.3956 42.9882 39.0636 42.6048 39.6872L46.459 43.5414C46.8409 43.9233 47.0319 44.4095 47.0319 44.9997C47.0319 45.59 46.8409 46.0761 46.459 46.4581C46.077 46.84 45.5909 47.031 45.0007 47.031C44.4104 47.031 43.9243 46.84 43.5423 46.4581ZM6.25065 41.6664C5.10482 41.6664 4.12426 41.2588 3.30898 40.4435C2.49371 39.6282 2.08537 38.647 2.08398 37.4997V35.8331C2.08398 34.6525 2.38815 33.5678 2.99648 32.5789C3.60482 31.59 4.41176 30.8345 5.41732 30.3122C7.5701 29.2358 9.7576 28.4289 11.9798 27.8914C14.202 27.3539 16.459 27.0845 18.7507 27.0831C19.3757 27.0831 20.0007 27.1095 20.6257 27.1622C21.2507 27.215 21.8757 27.2754 22.5007 27.3435C23.1951 27.4476 23.6902 27.8213 23.9861 28.4643C24.2819 29.1074 24.2555 29.7754 23.9069 30.4685C23.5597 31.2671 23.3083 32.0747 23.1527 32.8914C22.9972 33.7081 22.9187 34.5497 22.9173 35.4164C22.9173 36.0067 22.9611 36.597 23.0486 37.1872C23.1361 37.7775 23.2659 38.3678 23.4382 38.9581C23.6465 39.6525 23.5597 40.2775 23.1777 40.8331C22.7958 41.3886 22.275 41.6664 21.6152 41.6664H6.25065ZM39.584 16.6664C39.584 18.9581 38.768 20.9199 37.1361 22.5518C35.5041 24.1838 33.5423 24.9997 31.2507 24.9997C30.8687 24.9997 30.3826 24.9567 29.7923 24.8706C29.202 24.7845 28.7159 24.6886 28.334 24.5831C29.2715 23.472 29.9923 22.2393 30.4965 20.8851C31.0007 19.531 31.252 18.1247 31.2507 16.6664C31.2493 15.2081 30.9979 13.8018 30.4965 12.4476C29.9951 11.0935 29.2743 9.86084 28.334 8.74973C28.8201 8.57612 29.3062 8.46292 29.7923 8.41014C30.2784 8.35737 30.7645 8.33167 31.2507 8.33306C33.5423 8.33306 35.5041 9.14903 37.1361 10.781C38.768 12.4129 39.584 14.3747 39.584 16.6664ZM18.7507 24.9997C16.459 24.9997 14.4972 24.1838 12.8652 22.5518C11.2333 20.9199 10.4173 18.9581 10.4173 16.6664C10.4173 14.3747 11.2333 12.4129 12.8652 10.781C14.4972 9.14903 16.459 8.33306 18.7507 8.33306C21.0423 8.33306 23.0041 9.14903 24.6361 10.781C26.268 12.4129 27.084 14.3747 27.084 16.6664C27.084 18.9581 26.268 20.9199 24.6361 22.5518C23.0041 24.1838 21.0423 24.9997 18.7507 24.9997Z" fill="#0B57D0"/>
</svg>
