<svg width="33" height="40" viewBox="0 0 33 40" fill="none" xmlns="http://www.w3.org/2000/svg">
<path d="M16.0993 15.9883C12.5972 15.9883 9.74805 18.8375 9.74805 22.3396C9.74805 25.8417 12.5972 28.6908 16.0993 28.6908C19.6014 28.6908 22.4506 25.8416 22.4506 22.3396C22.4506 18.8374 19.6014 15.9883 16.0993 15.9883ZM19.556 21.6261L16.2238 24.9583C15.9613 25.2208 15.6163 25.3521 15.2713 25.3521C14.9263 25.3521 14.5813 25.2208 14.3188 24.9583L12.6426 23.2821C12.1158 22.7553 12.1158 21.9055 12.6426 21.3787C13.1694 20.8519 14.0192 20.8519 14.546 21.3787L15.2697 22.1024L17.6493 19.7227C18.1761 19.196 19.0259 19.196 19.5527 19.7227C20.0812 20.2478 20.0811 21.0993 19.556 21.6261Z" fill="#999999"/>
<path d="M29.5119 3.4873H28.0983V5.62801C28.0983 6.38196 27.4925 6.97435 26.752 6.97435C26.0115 6.97435 25.4056 6.38196 25.4056 5.62801V3.4873H21.003V5.62801C21.003 6.38196 20.3972 6.97435 19.6566 6.97435C18.9027 6.97435 18.3103 6.38196 18.3103 5.62801V3.4873H13.8943V5.62801C13.8943 6.38196 13.3019 6.97435 12.548 6.97435C11.8075 6.97435 11.2016 6.38196 11.2016 5.62801V3.4873H6.79899V5.62801C6.79899 6.38196 6.19316 6.97435 5.45265 6.97435C4.71214 6.97435 4.10631 6.38196 4.10631 5.62801V3.4873H2.69268C1.19822 3.4873 0 4.69901 0 6.17998V36.3513C0 37.8323 1.19822 39.044 2.69268 39.044H29.5118C31.0062 39.044 32.2044 37.8323 32.2044 36.3513V6.17998C32.2044 4.69901 31.0064 3.4873 29.5119 3.4873ZM16.1024 31.3817C11.116 31.3817 7.05844 27.3259 7.05844 22.3378C7.05844 17.3514 11.1143 13.2938 16.1024 13.2938C21.0888 13.2938 25.1463 17.3497 25.1463 22.3378C25.1463 27.3259 21.0888 31.3817 16.1024 31.3817Z" fill="#999999"/>
<path d="M28.097 1.34634C28.097 0.605831 27.4911 0 26.7506 0C26.0101 0 25.4043 0.605831 25.4043 1.34634V3.48704H28.097V1.34634Z" fill="#999999"/>
<path d="M20.9983 1.34634C20.9983 0.605831 20.3925 0 19.652 0C18.8981 0 18.3057 0.605831 18.3057 1.34634V3.48704H20.9983V1.34634Z" fill="#999999"/>
<path d="M13.8899 1.34634C13.8899 0.605831 13.2976 0 12.5436 0C11.8031 0 11.1973 0.605831 11.1973 1.34634V3.48704H13.8899V1.34634Z" fill="#999999"/>
<path d="M6.79131 1.34634C6.79131 0.605831 6.18548 0 5.44497 0C4.70446 0 4.09863 0.605831 4.09863 1.34634V3.48704H6.79131V1.34634Z" fill="#999999"/>
</svg>
