<svg width="50" height="50" viewBox="0 0 50 50" fill="none" xmlns="http://www.w3.org/2000/svg">
<path d="M6.25065 41.6664C5.10482 41.6664 4.12426 41.2588 3.30898 40.4435C2.49371 39.6282 2.08537 38.647 2.08398 37.4997V35.8331C2.08398 34.6525 2.38815 33.5678 2.99648 32.5789C3.60482 31.59 4.41176 30.8345 5.41732 30.3122C7.5701 29.2358 9.7576 28.4289 11.9798 27.8914C14.202 27.3539 16.459 27.0845 18.7507 27.0831C19.3757 27.0831 20.0007 27.1095 20.6257 27.1622C21.2507 27.215 21.8757 27.2754 22.5007 27.3435C23.1951 27.4476 23.6902 27.8213 23.9861 28.4643C24.2819 29.1074 24.2555 29.7754 23.9069 30.4685C23.5597 31.2671 23.3083 32.0747 23.1527 32.8914C22.9972 33.7081 22.9187 34.5497 22.9173 35.4164C22.9173 36.0067 22.9611 36.597 23.0486 37.1872C23.1361 37.7775 23.2659 38.3678 23.4382 38.9581C23.6465 39.6525 23.5597 40.2775 23.1777 40.8331C22.7958 41.3886 22.275 41.6664 21.6152 41.6664H6.25065ZM39.584 16.6664C39.584 18.9581 38.768 20.9199 37.1361 22.5518C35.5041 24.1838 33.5423 24.9997 31.2507 24.9997C30.8687 24.9997 30.3826 24.9567 29.7923 24.8706C29.202 24.7845 28.7159 24.6886 28.334 24.5831C29.2715 23.472 29.9923 22.2393 30.4965 20.8851C31.0007 19.531 31.252 18.1247 31.2507 16.6664C31.2493 15.2081 30.9979 13.8018 30.4965 12.4476C29.9951 11.0935 29.2743 9.86084 28.334 8.74973C28.8201 8.57612 29.3062 8.46292 29.7923 8.41014C30.2784 8.35737 30.7645 8.33167 31.2507 8.33306C33.5423 8.33306 35.5041 9.14903 37.1361 10.781C38.768 12.4129 39.584 14.3747 39.584 16.6664ZM18.7507 24.9997C16.459 24.9997 14.4972 24.1838 12.8652 22.5518C11.2333 20.9199 10.4173 18.9581 10.4173 16.6664C10.4173 14.3747 11.2333 12.4129 12.8652 10.781C14.4972 9.14903 16.459 8.33306 18.7507 8.33306C21.0423 8.33306 23.0041 9.14903 24.6361 10.781C26.268 12.4129 27.084 14.3747 27.084 16.6664C27.084 18.9581 26.268 20.9199 24.6361 22.5518C23.0041 24.1838 21.0423 24.9997 18.7507 24.9997Z" fill="#0B57D0"/>
<circle cx="35" cy="36" r="10" fill="#0B57D0"/>
<path d="M30.7086 30.2961C30.318 29.9055 29.6836 29.9055 29.293 30.2961C28.9023 30.6867 28.9023 31.3211 29.293 31.7117L33.5867 36.0023L29.2961 40.2961C28.9055 40.6867 28.9055 41.3211 29.2961 41.7117C29.6867 42.1023 30.3211 42.1023 30.7117 41.7117L35.0023 37.418L39.2961 41.7086C39.6867 42.0992 40.3211 42.0992 40.7117 41.7086C41.1023 41.318 41.1023 40.6836 40.7117 40.293L36.418 36.0023L40.7086 31.7086C41.0992 31.318 41.0992 30.6836 40.7086 30.293C40.318 29.9023 39.6836 29.9023 39.293 30.293L35.0023 34.5867L30.7086 30.2961Z" fill="#D3E3FD"/>
</svg>
