<svg width="151" height="37" viewBox="0 0 151 37" fill="none" xmlns="http://www.w3.org/2000/svg">
<path d="M6.74405 3.35742C6.69102 2.86121 6.46754 2.47485 6.0736 2.19833C5.68345 1.92182 5.17587 1.78356 4.55087 1.78356C4.11148 1.78356 3.73458 1.84985 3.42019 1.98242C3.10579 2.115 2.86526 2.29492 2.6986 2.52219C2.53193 2.74947 2.4467 3.00894 2.44292 3.3006C2.44292 3.54303 2.49784 3.75326 2.60769 3.93129C2.72132 4.10932 2.87473 4.26083 3.06792 4.38583C3.2611 4.50704 3.47511 4.60932 3.70996 4.69265C3.94481 4.77598 4.18155 4.84606 4.42019 4.90288L5.5111 5.1756C5.95049 5.27788 6.37284 5.41613 6.77814 5.59038C7.18723 5.76462 7.55276 5.98432 7.87473 6.24947C8.20049 6.51462 8.45807 6.83469 8.64746 7.20969C8.83685 7.58469 8.93155 8.02409 8.93155 8.52788C8.93155 9.20969 8.75731 9.81007 8.40882 10.329C8.06034 10.8442 7.55655 11.2476 6.89746 11.5392C6.24216 11.8271 5.4486 11.9711 4.51678 11.9711C3.61148 11.9711 2.82549 11.8309 2.15882 11.5506C1.49595 11.2703 0.977006 10.8612 0.602006 10.3233C0.230794 9.78545 0.0300367 9.13015 -0.000266314 8.35742H2.0736C2.1039 8.76272 2.2289 9.09985 2.4486 9.36879C2.66829 9.63772 2.95428 9.83848 3.30655 9.97106C3.66261 10.1036 4.06034 10.1699 4.49973 10.1699C4.95807 10.1699 5.35958 10.1017 5.70428 9.96538C6.05276 9.82522 6.32549 9.63204 6.52246 9.38583C6.71943 9.13583 6.81981 8.84416 6.8236 8.51083C6.81981 8.2078 6.73079 7.9578 6.55655 7.76083C6.38231 7.56007 6.13799 7.39341 5.8236 7.26083C5.51299 7.12447 5.14936 7.00326 4.73269 6.89719L3.40882 6.55629C2.45049 6.31007 1.69292 5.93697 1.1361 5.43697C0.583067 4.93318 0.306552 4.26462 0.306552 3.43128C0.306552 2.74568 0.492158 2.1453 0.86337 1.63015C1.23837 1.115 1.74784 0.715376 2.39178 0.431285C3.03572 0.143406 3.76489 -0.000533104 4.57928 -0.000533104C5.40504 -0.000533104 6.12852 0.143406 6.74973 0.431285C7.37473 0.715376 7.86526 1.11121 8.22132 1.61878C8.57739 2.12257 8.7611 2.70212 8.77246 3.35742H6.74405ZM10.7199 11.7949V3.06765H12.6858V4.5506H12.7881C12.9699 4.0506 13.271 3.66045 13.6915 3.38015C14.1119 3.09606 14.6138 2.95401 15.1972 2.95401C15.7881 2.95401 16.2862 3.09795 16.6915 3.38583C17.1006 3.66992 17.3885 4.05818 17.5551 4.5506H17.646C17.8392 4.06576 18.165 3.67939 18.6233 3.39151C19.0854 3.09985 19.6328 2.95401 20.2654 2.95401C21.0684 2.95401 21.7237 3.2078 22.2313 3.71538C22.7388 4.22295 22.9926 4.96348 22.9926 5.93697V11.7949H20.9301V6.25515C20.9301 5.71348 20.7862 5.31765 20.4983 5.06765C20.2104 4.81386 19.8582 4.68697 19.4415 4.68697C18.9453 4.68697 18.557 4.84227 18.2767 5.15288C18.0002 5.45969 17.8619 5.85932 17.8619 6.35174V11.7949H15.8449V6.16992C15.8449 5.71916 15.7085 5.35932 15.4358 5.09038C15.1669 4.82144 14.8146 4.68697 14.379 4.68697C14.0835 4.68697 13.8146 4.76272 13.5722 4.91424C13.3298 5.06197 13.1366 5.27219 12.9926 5.54492C12.8487 5.81386 12.7767 6.12826 12.7767 6.4881V11.7949H10.7199ZM27.5906 11.9711C27.0376 11.9711 26.5395 11.8726 26.0963 11.6756C25.6569 11.4748 25.3084 11.1794 25.0509 10.7892C24.7971 10.3991 24.6702 9.91803 24.6702 9.34606C24.6702 8.85363 24.7611 8.44644 24.9429 8.12447C25.1247 7.8025 25.3728 7.54492 25.6872 7.35174C26.0016 7.15856 26.3558 7.01272 26.7497 6.91424C27.1475 6.81197 27.5584 6.7381 27.9827 6.69265C28.4941 6.63962 28.9088 6.59227 29.227 6.5506C29.5452 6.50515 29.7762 6.43697 29.9202 6.34606C30.0679 6.25136 30.1418 6.10553 30.1418 5.90856V5.87447C30.1418 5.44644 30.0149 5.115 29.7611 4.88015C29.5073 4.6453 29.1418 4.52788 28.6645 4.52788C28.1607 4.52788 27.7611 4.63772 27.4656 4.85742C27.174 5.07712 26.977 5.33659 26.8747 5.63583L24.9543 5.3631C25.1058 4.8328 25.3558 4.38962 25.7043 4.03356C26.0528 3.67371 26.4789 3.40477 26.9827 3.22674C27.4865 3.04492 28.0433 2.95401 28.6531 2.95401C29.0736 2.95401 29.4922 3.00326 29.9088 3.10174C30.3255 3.20022 30.7062 3.3631 31.0509 3.59038C31.3956 3.81386 31.6721 4.11879 31.8804 4.50515C32.0925 4.89151 32.1986 5.37447 32.1986 5.95401V11.7949H30.2213V10.5961H30.1531C30.0281 10.8385 29.852 11.0658 29.6247 11.2779C29.4012 11.4862 29.1191 11.6548 28.7781 11.7836C28.441 11.9086 28.0452 11.9711 27.5906 11.9711ZM28.1247 10.4597C28.5376 10.4597 28.8956 10.3783 29.1986 10.2154C29.5016 10.0487 29.7346 9.82901 29.8975 9.55629C30.0641 9.28356 30.1475 8.98621 30.1475 8.66424V7.63583C30.0831 7.68886 29.9732 7.7381 29.8179 7.78356C29.6664 7.82901 29.4959 7.86879 29.3066 7.90288C29.1172 7.93697 28.9297 7.96727 28.7441 7.99379C28.5584 8.0203 28.3975 8.04303 28.2611 8.06197C27.9543 8.10363 27.6797 8.17182 27.4372 8.26651C27.1948 8.36121 27.0035 8.49379 26.8634 8.66424C26.7232 8.83091 26.6531 9.04682 26.6531 9.31197C26.6531 9.69076 26.7914 9.97674 27.0679 10.1699C27.3444 10.3631 27.6967 10.4597 28.1247 10.4597ZM34.2668 11.7949V3.06765H36.2611V4.52219H36.352C36.5111 4.01841 36.7838 3.63015 37.1702 3.35742C37.5603 3.08091 38.0054 2.94265 38.5054 2.94265C38.6191 2.94265 38.7459 2.94833 38.8861 2.95969C39.03 2.96727 39.1494 2.98053 39.2441 2.99947V4.89151C39.1569 4.86121 39.0187 4.83469 38.8293 4.81197C38.6437 4.78545 38.4637 4.77219 38.2895 4.77219C37.9145 4.77219 37.5774 4.85363 37.2781 5.01651C36.9827 5.1756 36.7497 5.39719 36.5793 5.68129C36.4088 5.96538 36.3236 6.29303 36.3236 6.66424V11.7949H34.2668ZM45.4372 3.06765V4.65856H40.4202V3.06765H45.4372ZM41.6588 0.97674H43.7156V9.16992C43.7156 9.44644 43.7573 9.65856 43.8406 9.80629C43.9278 9.95022 44.0414 10.0487 44.1816 10.1017C44.3217 10.1548 44.477 10.1813 44.6475 10.1813C44.7762 10.1813 44.8937 10.1718 44.9997 10.1529C45.1096 10.1339 45.1929 10.1169 45.2497 10.1017L45.5963 11.7097C45.4865 11.7476 45.3293 11.7892 45.1247 11.8347C44.924 11.8801 44.6778 11.9067 44.3861 11.9142C43.8709 11.9294 43.4069 11.8517 42.9941 11.6813C42.5812 11.507 42.2535 11.2381 42.0111 10.8745C41.7725 10.5108 41.655 10.0563 41.6588 9.51083V0.97674Z" fill="black"/>
<path d="M17.1228 16.401V35.7949H13.9978L4.85958 22.5847H4.6986V35.7949H1.18534V16.401H4.32928L13.4581 29.6207H13.6285V16.401H17.1228ZM20.951 35.7949V16.401H33.5646V19.3461H24.4642V24.6112H32.9112V27.5563H24.4642V32.8498H33.6404V35.7949H20.951ZM36.2966 19.3461V16.401H51.7701V19.3461H45.7758V35.7949H42.2909V19.3461H36.2966ZM58.8345 35.7949L53.361 16.401H57.1394L60.6337 30.6529H60.8137L64.5447 16.401H67.9822L71.7227 30.6623H71.8932L75.3875 16.401H79.1659L73.6924 35.7949H70.2265L66.344 22.187H66.1924L62.3004 35.7949H58.8345ZM97.8899 26.098C97.8899 28.1876 97.4985 29.9774 96.7156 31.4673C95.9391 32.9509 94.8785 34.0872 93.5338 34.8764C92.1954 35.6655 90.6771 36.0601 88.9789 36.0601C87.2807 36.0601 85.7592 35.6655 84.4145 34.8764C83.0761 34.0809 82.0155 32.9414 81.2327 31.4578C80.4562 29.9679 80.0679 28.1813 80.0679 26.098C80.0679 24.0083 80.4562 22.2217 81.2327 20.7381C82.0155 19.2482 83.0761 18.1087 84.4145 17.3195C85.7592 16.5304 87.2807 16.1358 88.9789 16.1358C90.6771 16.1358 92.1954 16.5304 93.5338 17.3195C94.8785 18.1087 95.9391 19.2482 96.7156 20.7381C97.4985 22.2217 97.8899 24.0083 97.8899 26.098ZM94.3577 26.098C94.3577 24.627 94.1273 23.3865 93.6664 22.3764C93.2119 21.3599 92.5805 20.5929 91.7725 20.0752C90.9644 19.5512 90.0332 19.2892 88.9789 19.2892C87.9246 19.2892 86.9934 19.5512 86.1853 20.0752C85.3773 20.5929 84.7428 21.3599 84.2819 22.3764C83.8274 23.3865 83.6001 24.627 83.6001 26.098C83.6001 27.5689 83.8274 28.8126 84.2819 29.829C84.7428 30.8391 85.3773 31.6062 86.1853 32.1301C86.9934 32.6478 87.9246 32.9067 88.9789 32.9067C90.0332 32.9067 90.9644 32.6478 91.7725 32.1301C92.5805 31.6062 93.2119 30.8391 93.6664 29.829C94.1273 28.8126 94.3577 27.5689 94.3577 26.098ZM101.211 35.7949V16.401H108.484C109.974 16.401 111.224 16.6598 112.234 17.1775C113.251 17.6952 114.018 18.4212 114.535 19.3555C115.059 20.2836 115.321 21.3663 115.321 22.6036C115.321 23.8473 115.056 24.9269 114.526 25.8423C114.002 26.7514 113.228 27.4553 112.206 27.954C111.183 28.4464 109.927 28.6926 108.437 28.6926H103.257V25.776H107.963C108.834 25.776 109.548 25.656 110.103 25.4161C110.659 25.1699 111.069 24.8132 111.334 24.3461C111.606 23.8726 111.742 23.2918 111.742 22.6036C111.742 21.9155 111.606 21.3284 111.334 20.8423C111.063 20.3498 110.65 19.9774 110.094 19.7248C109.538 19.466 108.822 19.3366 107.944 19.3366H104.725V35.7949H101.211ZM111.23 27.007L116.031 35.7949H112.111L107.395 27.007H111.23ZM118.555 35.7949V16.401H122.068V25.312H122.305L129.871 16.401H134.161L126.661 25.1036L134.227 35.7949H130.004L124.218 27.4805L122.068 30.0184V35.7949H118.555ZM147.038 21.7324C146.949 20.9054 146.577 20.2615 145.92 19.8006C145.27 19.3397 144.424 19.1093 143.382 19.1093C142.65 19.1093 142.022 19.2198 141.498 19.4408C140.974 19.6617 140.573 19.9616 140.295 20.3404C140.017 20.7192 139.875 21.1516 139.869 21.6377C139.869 22.0418 139.961 22.3921 140.144 22.6889C140.333 22.9856 140.589 23.2381 140.911 23.4464C141.233 23.6485 141.589 23.8189 141.981 23.9578C142.372 24.0967 142.767 24.2135 143.165 24.3082L144.983 24.7627C145.715 24.9332 146.419 25.1636 147.094 25.454C147.776 25.7444 148.385 26.1106 148.922 26.5525C149.465 26.9944 149.894 27.5279 150.21 28.1529C150.526 28.7779 150.683 29.5102 150.683 30.3498C150.683 31.4862 150.393 32.4868 149.812 33.3517C149.231 34.2103 148.392 34.8827 147.293 35.3688C146.201 35.8486 144.879 36.0885 143.325 36.0885C141.817 36.0885 140.507 35.8549 139.396 35.3877C138.291 34.9206 137.426 34.2387 136.801 33.3423C136.182 32.4458 135.848 31.3536 135.797 30.0658H139.254C139.304 30.7413 139.512 31.3031 139.879 31.7514C140.245 32.1996 140.721 32.5342 141.308 32.7551C141.902 32.9761 142.565 33.0866 143.297 33.0866C144.061 33.0866 144.73 32.973 145.305 32.7457C145.885 32.5121 146.34 32.1901 146.668 31.7798C146.997 31.3631 147.164 30.877 147.17 30.3214C147.164 29.8164 147.016 29.3997 146.725 29.0714C146.435 28.7368 146.028 28.4591 145.504 28.2381C144.986 28.0108 144.38 27.8088 143.685 27.632L141.479 27.0639C139.882 26.6535 138.619 26.0317 137.691 25.1983C136.769 24.3587 136.308 23.2444 136.308 21.8555C136.308 20.7128 136.618 19.7122 137.236 18.8536C137.861 17.995 138.711 17.329 139.784 16.8555C140.857 16.3757 142.072 16.1358 143.43 16.1358C144.806 16.1358 146.012 16.3757 147.047 16.8555C148.089 17.329 148.906 17.9887 149.5 18.8347C150.093 19.6743 150.399 20.6402 150.418 21.7324H147.038Z" fill="#E40000"/>
</svg>
