<svg width="20" height="20" viewBox="0 0 20 20" fill="none" xmlns="http://www.w3.org/2000/svg">
<path d="M14.2498 4.36166H13.3612V3.56196C13.3612 3.43609 13.268 3.33409 13.1531 3.33409C13.0382 3.33409 12.945 3.43609 12.945 3.56196V4.36166H10.2076V3.56196C10.2076 3.43501 10.1145 3.33301 9.99959 3.33301C9.88467 3.33301 9.79154 3.43501 9.79154 3.56087V4.36057L7.05516 4.36166V3.56196C7.05516 3.43609 6.96203 3.33409 6.8471 3.33409C6.73218 3.33409 6.63905 3.43609 6.63905 3.56196V4.36166H5.75037C4.41784 4.36166 3.33398 5.54872 3.33398 7.00815V14.0199C3.33398 15.4793 4.41784 16.6663 5.75037 16.6663H14.2509C15.5835 16.6663 16.6673 15.4793 16.6673 14.0199L16.6663 7.00815C16.6663 5.54872 15.5824 4.36166 14.2498 4.36166ZM5.74927 4.81847H6.63795V5.61817C6.63795 5.74404 6.73108 5.84603 6.846 5.84603C6.96093 5.84603 7.05406 5.74403 7.05406 5.61817V4.81847H9.78943V5.61817C9.78943 5.74404 9.88255 5.84603 9.99748 5.84603C10.1124 5.84603 10.2055 5.74403 10.2055 5.61817V4.81847H12.9419V5.61817C12.9419 5.74404 13.035 5.84603 13.15 5.84603C13.2649 5.84603 13.358 5.74403 13.358 5.61817V4.81847H14.2467C15.3494 4.81847 16.246 5.80047 16.246 7.00815V7.50512L3.74979 7.50404V7.00706C3.74979 5.80044 4.6466 4.81847 5.74927 4.81847ZM14.2498 16.2096H5.74927C4.64657 16.2096 3.74997 15.2276 3.74997 14.02V7.96104H16.249V14.02C16.249 15.2277 15.3525 16.2096 14.2498 16.2096ZM12.4814 10.0366L12.4725 10.0398L11.2935 10.6691L8.50258 10.0311C8.41936 10.0127 8.33812 10.0235 8.26084 10.0615L7.69611 10.3458C7.56038 10.4152 7.4732 10.5606 7.47023 10.7223C7.46528 10.8883 7.54651 11.0391 7.68026 11.114L9.0356 11.8844L7.89427 12.5333L7.09078 12.2805C6.95901 12.2392 6.82625 12.2544 6.70737 12.325L6.13177 12.6635C6.02873 12.7221 5.9683 12.8382 5.97226 12.9662C5.97721 13.0932 6.04557 13.2039 6.1496 13.2527L8.17268 14.2379C8.28067 14.29 8.39361 14.3171 8.50557 14.3171C8.63436 14.3171 8.76117 14.2824 8.88106 14.2141L13.2691 11.7076C13.8556 11.3723 14.1647 10.7451 13.9735 10.2807C13.9011 10.106 13.5821 9.57539 12.4814 10.0366ZM13.0748 11.3018L8.6868 13.8083C8.57386 13.8723 8.45695 13.8766 8.34004 13.8202L6.53691 12.9424L6.90248 12.7275C6.92626 12.7134 6.94608 12.7112 6.97282 12.7199L7.82288 12.9879C7.89818 13.0107 7.97347 13.0031 8.04282 12.963L9.42786 12.1763C9.52693 12.1199 9.58835 12.0081 9.58835 11.8844C9.58835 11.7607 9.52594 11.649 9.42588 11.5925L7.91799 10.7353L8.42623 10.4792L11.2448 11.1238C11.3082 11.139 11.3746 11.1303 11.435 11.0999L12.6378 10.4586C13.1985 10.2253 13.5205 10.2937 13.5908 10.4651C13.6651 10.6453 13.5236 11.0457 13.0748 11.3018Z" fill="#999999"/>
<path d="M10 3.18262C10.2104 3.18285 10.3572 3.36564 10.3574 3.56152V4.21191H12.7949V3.56152C12.7951 3.36611 12.9432 3.18457 13.1533 3.18457C13.3634 3.1847 13.5105 3.36618 13.5107 3.56152V4.21191H14.25C15.6777 4.21201 16.8162 5.47888 16.8164 7.00781L16.8174 14.0195C16.8174 15.5487 15.6789 16.8164 14.251 16.8164H5.75C4.32225 16.8162 3.18359 15.5485 3.18359 14.0195V7.00781C3.18376 5.47896 4.32235 4.21213 5.75 4.21191H6.48926V3.56152C6.48948 3.36624 6.63674 3.18482 6.84668 3.18457C7.05684 3.18457 7.20486 3.36611 7.20508 3.56152V4.21094H9.6416V3.56055C9.64177 3.36509 9.7898 3.18262 10 3.18262ZM3.90039 14.0195C3.90039 15.1574 4.74183 16.0594 5.74902 16.0596H14.25C15.2572 16.0595 16.0986 15.1575 16.0986 14.0195V8.11133H3.90039V14.0195ZM12.4297 9.89551C12.9988 9.65834 13.3963 9.66442 13.6719 9.78223C13.9475 9.90012 14.0677 10.1159 14.1123 10.2236C14.2284 10.5058 14.1882 10.825 14.0479 11.1094C13.9071 11.3945 13.6611 11.6564 13.3438 11.8379L8.95508 14.3447C8.81432 14.4249 8.66223 14.4667 8.50586 14.4668C8.40356 14.4668 8.30186 14.4481 8.2041 14.4131L8.10742 14.373L6.08398 13.3877V13.3867C5.92407 13.3106 5.82908 13.1463 5.82227 12.9717V12.9707C5.81687 12.7945 5.90007 12.6237 6.05566 12.5342L6.63086 12.1953C6.78646 12.1031 6.96367 12.0839 7.13574 12.1377L7.87695 12.3701L8.73242 11.8838L7.60742 11.2441V11.2451C7.42038 11.1404 7.31385 10.9343 7.32031 10.7178C7.32483 10.5057 7.43983 10.3082 7.62793 10.2119H7.62891L8.19336 9.92773L8.19434 9.92676C8.30072 9.87447 8.41711 9.8586 8.53516 9.88477H8.53613L11.2725 10.5098L12.4014 9.90723L12.4111 9.90234L12.4209 9.89844L12.4297 9.89551ZM13.2891 10.46C13.1614 10.4525 12.9658 10.4839 12.7002 10.5938L11.5059 11.2324L11.502 11.2344C11.4121 11.2794 11.3098 11.2934 11.21 11.2695V11.2686L8.44629 10.6367L8.23535 10.7422L9.5 11.4619L9.55371 11.4971C9.67172 11.588 9.73828 11.7334 9.73828 11.8848C9.73818 12.035 9.67266 12.1793 9.55566 12.2705L9.50195 12.3066L8.11719 13.0938L8.11621 13.0928C8.01022 13.1537 7.89268 13.1661 7.7793 13.1318L7.77734 13.1309L6.95312 12.8711L6.85352 12.9297L8.40527 13.6855L8.45801 13.7041C8.50997 13.7164 8.55948 13.7076 8.6123 13.6777L13 11.1719C13.2011 11.0571 13.3283 10.9124 13.3965 10.7842C13.4505 10.6825 13.462 10.6038 13.459 10.5576L13.4521 10.5225C13.4484 10.5132 13.421 10.4677 13.2891 10.46ZM5.74902 4.96875C4.74186 4.96889 3.89953 5.8702 3.89941 7.00684V7.35449H16.0957V7.00781C16.0955 5.87014 15.2541 4.96897 14.2471 4.96875H13.5078V5.61816C13.5078 5.81361 13.3605 5.99585 13.1504 5.99609C12.9401 5.99609 12.792 5.81374 12.792 5.61816V4.96875H10.3555V5.61816C10.3555 5.81374 10.2074 5.99609 9.99707 5.99609C9.78697 5.99586 9.63965 5.81362 9.63965 5.61816V4.96875H7.2041V5.61816C7.2041 5.81374 7.05602 5.99609 6.8457 5.99609C6.63555 5.99592 6.48828 5.81365 6.48828 5.61816V4.96875H5.74902Z" fill="#999999" stroke="#999999" stroke-width="0.3"/>
</svg>
