<svg width="24" height="24" viewBox="0 0 24 24" fill="none" xmlns="http://www.w3.org/2000/svg">
<path d="M8.70659 6.70704C8.88875 6.51844 8.98954 6.26584 8.98727 6.00364C8.98499 5.74144 8.87982 5.49063 8.69441 5.30522C8.509 5.11981 8.25819 5.01465 7.99599 5.01237C7.7338 5.01009 7.48119 5.11088 7.29259 5.29304L3.99959 8.58604L2.70659 7.29304C2.51799 7.11088 2.26539 7.01009 2.00319 7.01237C1.74099 7.01465 1.49018 7.11981 1.30477 7.30522C1.11937 7.49063 1.0142 7.74144 1.01192 8.00364C1.00964 8.26584 1.11043 8.51844 1.29259 8.70704L3.29259 10.707C3.48012 10.8945 3.73443 10.9998 3.99959 10.9998C4.26476 10.9998 4.51906 10.8945 4.70659 10.707L8.70659 6.70704ZM11.9996 7.00004C11.7344 7.00004 11.48 7.1054 11.2925 7.29293C11.1049 7.48047 10.9996 7.73482 10.9996 8.00004C10.9996 8.26526 11.1049 8.51961 11.2925 8.70715C11.48 8.89468 11.7344 9.00004 11.9996 9.00004H21.9996C22.2648 9.00004 22.5192 8.89468 22.7067 8.70715C22.8942 8.51961 22.9996 8.26526 22.9996 8.00004C22.9996 7.73482 22.8942 7.48047 22.7067 7.29293C22.5192 7.1054 22.2648 7.00004 21.9996 7.00004H11.9996ZM8.70659 13.293C8.89406 13.4806 8.99938 13.7349 8.99938 14C8.99938 14.2652 8.89406 14.5195 8.70659 14.707L4.70659 18.707C4.51906 18.8945 4.26476 18.9998 3.99959 18.9998C3.73443 18.9998 3.48012 18.8945 3.29259 18.707L1.29259 16.707C1.19708 16.6148 1.1209 16.5044 1.06849 16.3824C1.01608 16.2604 0.988496 16.1292 0.987342 15.9964C0.986189 15.8637 1.01149 15.732 1.06177 15.6091C1.11205 15.4862 1.18631 15.3745 1.2802 15.2806C1.37409 15.1868 1.48574 15.1125 1.60864 15.0622C1.73154 15.0119 1.86321 14.9866 1.99599 14.9878C2.12877 14.9889 2.25999 15.0165 2.382 15.0689C2.504 15.1213 2.61435 15.1975 2.70659 15.293L3.99959 16.586L7.29259 13.293C7.48012 13.1056 7.73443 13.0003 7.99959 13.0003C8.26476 13.0003 8.51906 13.1056 8.70659 13.293ZM11.9996 15C11.7344 15 11.48 15.1054 11.2925 15.2929C11.1049 15.4805 10.9996 15.7348 10.9996 16C10.9996 16.2653 11.1049 16.5196 11.2925 16.7071C11.48 16.8947 11.7344 17 11.9996 17H21.9996C22.2648 17 22.5192 16.8947 22.7067 16.7071C22.8942 16.5196 22.9996 16.2653 22.9996 16C22.9996 15.7348 22.8942 15.4805 22.7067 15.2929C22.5192 15.1054 22.2648 15 21.9996 15H11.9996Z" fill="#333333"/>
</svg>
