<svg width="24" height="24" viewBox="0 0 24 24" fill="none" xmlns="http://www.w3.org/2000/svg">
<path d="M7.00781 11.9998C7.00781 11.8009 7.08683 11.6102 7.22748 11.4695C7.36813 11.3289 7.5589 11.2498 7.75781 11.2498H11.2508V7.75684C11.2508 7.55792 11.3298 7.36716 11.4705 7.22651C11.6111 7.08585 11.8019 7.00684 12.0008 7.00684C12.1997 7.00684 12.3905 7.08585 12.5311 7.22651C12.6718 7.36716 12.7508 7.55792 12.7508 7.75684V11.2498H16.2438C16.4427 11.2498 16.6335 11.3289 16.7741 11.4695C16.9148 11.6102 16.9938 11.8009 16.9938 11.9998C16.9938 12.1987 16.9148 12.3895 16.7741 12.5302C16.6335 12.6708 16.4427 12.7498 16.2438 12.7498H12.7508V16.2428C12.7508 16.4417 12.6718 16.6325 12.5311 16.7732C12.3905 16.9138 12.1997 16.9928 12.0008 16.9928C11.8019 16.9928 11.6111 16.9138 11.4705 16.7732C11.3298 16.6325 11.2508 16.4417 11.2508 16.2428V12.7498H7.75781C7.5589 12.7498 7.36813 12.6708 7.22748 12.5302C7.08683 12.3895 7.00781 12.1987 7.00781 11.9998Z" fill="#147BFF"/>
<path fill-rule="evenodd" clip-rule="evenodd" d="M7.31569 3.76905C10.4282 3.42399 13.5692 3.42399 16.6817 3.76905C18.5087 3.97305 19.9837 5.41205 20.1977 7.24905C20.5677 10.406 20.5677 13.595 20.1977 16.752C19.9827 18.589 18.5077 20.027 16.6817 20.232C13.5692 20.5771 10.4282 20.5771 7.31569 20.232C5.48869 20.027 4.01369 18.589 3.79969 16.752C3.43135 13.5951 3.43135 10.406 3.79969 7.24905C4.01369 5.41205 5.48969 3.97305 7.31569 3.76905ZM16.5157 5.25905C13.5136 4.92627 10.4838 4.92627 7.48169 5.25905C6.92594 5.3207 6.4072 5.56792 6.00927 5.96076C5.61135 6.35361 5.35749 6.86913 5.28869 7.42405C4.93302 10.465 4.93302 13.5371 5.28869 16.578C5.3577 17.1328 5.61165 17.6481 6.00956 18.0407C6.40746 18.4334 6.92609 18.6804 7.48169 18.742C10.4587 19.074 13.5387 19.074 16.5157 18.742C17.0711 18.6802 17.5895 18.4331 17.9872 18.0404C18.3849 17.6478 18.6387 17.1326 18.7077 16.578C19.0634 13.5371 19.0634 10.465 18.7077 7.42405C18.6385 6.86964 18.3846 6.35469 17.9869 5.96227C17.5893 5.56985 17.071 5.32282 16.5157 5.26105" fill="#147BFF"/>
</svg>
