<svg width="24" height="24" viewBox="0 0 24 24" fill="none" xmlns="http://www.w3.org/2000/svg">
<path d="M10.7692 5.8463H13.2308C13.2308 5.51988 13.1011 5.20683 12.8703 4.97602C12.6395 4.7452 12.3264 4.61553 12 4.61553C11.6736 4.61553 11.3605 4.7452 11.1297 4.97602C10.8989 5.20683 10.7692 5.51988 10.7692 5.8463ZM9.53846 5.8463C9.53846 5.19346 9.7978 4.56736 10.2594 4.10573C10.7211 3.64411 11.3472 3.38477 12 3.38477C12.6528 3.38477 13.2789 3.64411 13.7406 4.10573C14.2022 4.56736 14.4615 5.19346 14.4615 5.8463H19.3846C19.5478 5.8463 19.7044 5.91114 19.8198 6.02655C19.9352 6.14195 20 6.29848 20 6.46169C20 6.6249 19.9352 6.78142 19.8198 6.89683C19.7044 7.01224 19.5478 7.07707 19.3846 7.07707H18.6905L17.2074 17.9546C17.1068 18.6918 16.7425 19.3675 16.182 19.8567C15.6215 20.3459 14.9027 20.6155 14.1588 20.6155H9.84123C9.09725 20.6155 8.37847 20.3459 7.81797 19.8567C7.25747 19.3675 6.8932 18.6918 6.79262 17.9546L5.30954 7.07707H4.61538C4.45217 7.07707 4.29565 7.01224 4.18024 6.89683C4.06483 6.78142 4 6.6249 4 6.46169C4 6.29848 4.06483 6.14195 4.18024 6.02655C4.29565 5.91114 4.45217 5.8463 4.61538 5.8463H9.53846ZM10.7692 10.154C10.7692 9.99079 10.7044 9.83426 10.589 9.71885C10.4736 9.60345 10.3171 9.53861 10.1538 9.53861C9.99064 9.53861 9.83411 9.60345 9.7187 9.71885C9.6033 9.83426 9.53846 9.99079 9.53846 10.154V16.3078C9.53846 16.4711 9.6033 16.6276 9.7187 16.743C9.83411 16.8584 9.99064 16.9232 10.1538 16.9232C10.3171 16.9232 10.4736 16.8584 10.589 16.743C10.7044 16.6276 10.7692 16.4711 10.7692 16.3078V10.154ZM13.8462 9.53861C14.0094 9.53861 14.1659 9.60345 14.2813 9.71885C14.3967 9.83426 14.4615 9.99079 14.4615 10.154V16.3078C14.4615 16.4711 14.3967 16.6276 14.2813 16.743C14.1659 16.8584 14.0094 16.9232 13.8462 16.9232C13.6829 16.9232 13.5264 16.8584 13.411 16.743C13.2956 16.6276 13.2308 16.4711 13.2308 16.3078V10.154C13.2308 9.99079 13.2956 9.83426 13.411 9.71885C13.5264 9.60345 13.6829 9.53861 13.8462 9.53861ZM8.01231 17.7885C8.07271 18.2307 8.29125 18.636 8.6275 18.9295C8.96375 19.223 9.39492 19.3847 9.84123 19.3848H14.1588C14.6053 19.385 15.0368 19.2234 15.3733 18.9299C15.7098 18.6364 15.9285 18.2309 15.9889 17.7885L17.4486 7.07707H6.55138L8.01231 17.7885Z" fill="#FF2130"/>
</svg>
