<svg width="24" height="24" viewBox="0 0 24 24" fill="none" xmlns="http://www.w3.org/2000/svg">
<path d="M18.356 4.35164H16.0145V3.85667C16.0145 3.38074 15.6337 3 15.1578 3C14.6819 3 14.3011 3.38074 14.3011 3.85667V4.35164H8.76128V3.85667C8.76128 3.38074 8.38054 3 7.90461 3C7.42868 3 7.04794 3.38074 7.04794 3.85667V4.35164H4.7254C3.50702 4.35164 2.49805 5.34157 2.49805 6.57899V18.1726C2.49805 19.391 3.48798 20.4 4.7254 20.4H18.3751C19.5934 20.4 20.6024 19.4101 20.6024 18.1726V6.57899C20.5834 5.34157 19.5934 4.35164 18.356 4.35164ZM4.7254 6.06499H7.06697V6.55996C7.06697 7.03588 7.44772 7.41663 7.92365 7.41663C8.39958 7.41663 8.78032 7.03588 8.78032 6.55996V6.06499H14.3201V6.55996C14.3201 7.03588 14.7009 7.41663 15.1768 7.41663C15.6527 7.41663 16.0335 7.03588 16.0335 6.55996V6.06499H18.3751C18.6606 6.06499 18.8891 6.29343 18.8891 6.57899V8.84442H4.21139V6.57899C4.21139 6.29343 4.43984 6.06499 4.7254 6.06499ZM18.356 18.6866H4.7254C4.43984 18.6866 4.21139 18.4582 4.21139 18.1726V10.5387H18.8891V18.1726C18.87 18.4582 18.6416 18.6866 18.356 18.6866Z" fill="#333333"/>
</svg>
