<svg width="24" height="24" viewBox="0 0 24 24" fill="none" xmlns="http://www.w3.org/2000/svg">
  <path d="M5 4.5 L7 3 L9 4.5 L11 3 L13 4.5 L15 3 L17 4.5 L19 3 V21 L17 19.5 L15 21 L13 19.5 L11 21 L9 19.5 L7 21 L5 19.5 Z" stroke="#333333" stroke-width="2" stroke-linejoin="round" stroke-linecap="round" fill="none"/>
  <path d="M12 6.5v11M14.5 9.5a2 2 0 00-2-2h-1a2 2 0 00-2 2v0a2 2 0 002 2h1a2 2 0 012 2v0a2 2 0 01-2 2h-1a2 2 0 01-2-2" stroke="#333333" stroke-width="2" stroke-linecap="round" stroke-linejoin="round"/>
</svg>
