<svg width="80" height="80" viewBox="0 0 80 80" fill="none" xmlns="http://www.w3.org/2000/svg">
<circle cx="40" cy="40" r="40" fill="#D3E3FD"/>
<path d="M40.1247 35.9883C36.6226 35.9883 33.7734 38.8375 33.7734 42.3396C33.7734 45.8417 36.6226 48.6908 40.1247 48.6908C43.6268 48.6908 46.476 45.8416 46.476 42.3396C46.476 38.8374 43.6268 35.9883 40.1247 35.9883ZM43.5814 41.6261L40.2492 44.9583C39.9867 45.2208 39.6417 45.3521 39.2967 45.3521C38.9517 45.3521 38.6067 45.2208 38.3442 44.9583L36.668 43.2821C36.1412 42.7553 36.1412 41.9055 36.668 41.3787C37.1948 40.8519 38.0446 40.8519 38.5714 41.3787L39.2951 42.1024L41.6747 39.7227C42.2015 39.196 43.0513 39.196 43.5781 39.7227C44.1066 40.2478 44.1065 41.0993 43.5814 41.6261Z" fill="#0B57D0"/>
<path d="M53.5354 23.4863H52.1217V25.627C52.1217 26.381 51.5159 26.9734 50.7754 26.9734C50.0349 26.9734 49.4291 26.381 49.4291 25.627V23.4863H45.0264V25.627C45.0264 26.381 44.4206 26.9734 43.6801 26.9734C42.9261 26.9734 42.3337 26.381 42.3337 25.627V23.4863H37.9177V25.627C37.9177 26.381 37.3254 26.9734 36.5714 26.9734C35.8309 26.9734 35.2251 26.381 35.2251 25.627V23.4863H30.8224V25.627C30.8224 26.381 30.2166 26.9734 29.4761 26.9734C28.7356 26.9734 28.1298 26.381 28.1298 25.627V23.4863H26.7161C25.2217 23.4863 24.0234 24.698 24.0234 26.179V56.3504C24.0234 57.8313 25.2217 59.043 26.7161 59.043H53.5352C55.0297 59.043 56.2279 57.8313 56.2279 56.3504V26.179C56.2279 24.698 55.0298 23.4863 53.5354 23.4863ZM40.1258 51.3808C35.1394 51.3808 31.0819 47.3249 31.0819 42.3368C31.0819 37.3504 35.1377 33.2928 40.1258 33.2928C45.1122 33.2928 49.1698 37.3487 49.1698 42.3368C49.1698 47.3249 45.1122 51.3808 40.1258 51.3808Z" fill="#0B57D0"/>
<path d="M52.1224 21.3463C52.1224 20.6058 51.5165 20 50.776 20C50.0355 20 49.4297 20.6058 49.4297 21.3463V23.487H52.1224V21.3463Z" fill="#0B57D0"/>
<path d="M45.0208 21.3463C45.0208 20.6058 44.415 20 43.6745 20C42.9205 20 42.3281 20.6058 42.3281 21.3463V23.487H45.0208V21.3463Z" fill="#0B57D0"/>
<path d="M37.9114 21.3463C37.9114 20.6058 37.319 20 36.5651 20C35.8246 20 35.2188 20.6058 35.2188 21.3463V23.487H37.9114V21.3463Z" fill="#0B57D0"/>
<path d="M30.8177 21.3463C30.8177 20.6058 30.2118 20 29.4713 20C28.7308 20 28.125 20.6058 28.125 21.3463V23.487H30.8177V21.3463Z" fill="#0B57D0"/>
</svg>
