<svg width="80" height="80" viewBox="0 0 80 80" fill="none" xmlns="http://www.w3.org/2000/svg">
<circle cx="40" cy="40" r="40" fill="#D3E3FD"/>
<path d="M50.4193 54.5836C51.5998 54.5836 52.5811 54.2363 53.363 53.5419C54.145 52.8474 54.5526 51.8058 54.5859 50.4169C54.6207 49.2363 54.2304 48.2467 53.4151 47.4481C52.5998 46.6495 51.6012 46.2502 50.4193 46.2502C49.2373 46.2502 48.2477 46.6495 47.4505 47.4481C46.6533 48.2467 46.254 49.2363 46.2526 50.4169C46.2512 51.5974 46.6505 52.587 47.4505 53.3856C48.2505 54.1842 49.2401 54.5836 50.4193 54.5836ZM58.5443 61.4585L54.6901 57.6044C54.0651 57.9863 53.3964 58.2731 52.6839 58.4648C51.9714 58.6565 51.2165 58.7516 50.4193 58.7502C48.1276 58.7502 46.1658 57.9342 44.5339 56.3023C42.9019 54.6704 42.0859 52.7086 42.0859 50.4169C42.0859 48.1252 42.9019 46.1634 44.5339 44.5315C46.1658 42.8995 48.1276 42.0836 50.4193 42.0836C52.7109 42.0836 54.6727 42.8995 56.3047 44.5315C57.9366 46.1634 58.7526 48.1252 58.7526 50.4169C58.7526 51.2155 58.6575 51.9711 58.4672 52.6835C58.2769 53.3961 57.9901 54.0641 57.6068 54.6877L61.4609 58.5419C61.8429 58.9238 62.0339 59.4099 62.0339 60.0002C62.0339 60.5905 61.8429 61.0766 61.4609 61.4585C61.079 61.8405 60.5929 62.0315 60.0026 62.0315C59.4123 62.0315 58.9262 61.8405 58.5443 61.4585ZM21.2526 56.6669C20.1068 56.6669 19.1262 56.2592 18.3109 55.444C17.4957 54.6287 17.0873 53.6474 17.0859 52.5002V50.8336C17.0859 49.653 17.3901 48.5683 17.9984 47.5794C18.6068 46.5905 19.4137 45.8349 20.4193 45.3127C22.572 44.2363 24.7595 43.4294 26.9818 42.8919C29.204 42.3544 31.4609 42.0849 33.7526 42.0836C34.3776 42.0836 35.0026 42.1099 35.6276 42.1627C36.2526 42.2155 36.8776 42.2759 37.5026 42.344C38.1971 42.4481 38.6922 42.8217 38.988 43.4648C39.2839 44.1079 39.2575 44.7759 38.9089 45.469C38.5616 46.2676 38.3102 47.0752 38.1547 47.8919C37.9991 48.7086 37.9207 49.5502 37.9193 50.4169C37.9193 51.0072 37.963 51.5974 38.0505 52.1877C38.138 52.778 38.2679 53.3683 38.4401 53.9586C38.6484 54.653 38.5616 55.278 38.1797 55.8336C37.7977 56.3891 37.2769 56.6669 36.6172 56.6669H21.2526ZM54.5859 31.6669C54.5859 33.9586 53.77 35.9204 52.138 37.5523C50.5061 39.1842 48.5443 40.0002 46.2526 40.0002C45.8707 40.0002 45.3846 39.9572 44.7943 39.871C44.204 39.7849 43.7179 39.6891 43.3359 39.5836C44.2734 38.4724 44.9943 37.2398 45.4984 35.8856C46.0026 34.5315 46.254 33.1252 46.2526 31.6669C46.2512 30.2086 45.9998 28.8023 45.4984 27.4481C44.997 26.094 44.2762 24.8613 43.3359 23.7502C43.8221 23.5766 44.3082 23.4634 44.7943 23.4106C45.2804 23.3579 45.7665 23.3322 46.2526 23.3335C48.5443 23.3335 50.5061 24.1495 52.138 25.7815C53.77 27.4134 54.5859 29.3752 54.5859 31.6669ZM33.7526 40.0002C31.4609 40.0002 29.4991 39.1842 27.8672 37.5523C26.2352 35.9204 25.4193 33.9586 25.4193 31.6669C25.4193 29.3752 26.2352 27.4134 27.8672 25.7815C29.4991 24.1495 31.4609 23.3335 33.7526 23.3335C36.0443 23.3335 38.0061 24.1495 39.638 25.7815C41.27 27.4134 42.0859 29.3752 42.0859 31.6669C42.0859 33.9586 41.27 35.9204 39.638 37.5523C38.0061 39.1842 36.0443 40.0002 33.7526 40.0002Z" fill="#0B57D0"/>
</svg>
