<svg width="20" height="21" viewBox="0 0 20 21" fill="none" xmlns="http://www.w3.org/2000/svg">
<path d="M8 19H3C2.46957 19 1.96086 18.7893 1.58579 18.4142C1.21071 18.0391 1 17.5304 1 17V5C1 4.46957 1.21071 3.96086 1.58579 3.58579C1.96086 3.21071 2.46957 3 3 3H15C15.5304 3 16.0391 3.21071 16.4142 3.58579C16.7893 3.96086 17 4.46957 17 5V8.5M13 1V5M5 1V5M1 9H12" stroke="#333333" stroke-width="2" stroke-linecap="round" stroke-linejoin="round"/>
<path d="M14.8022 18.8175L12.6302 19.9555C12.5657 19.989 12.4932 20.004 12.4208 19.9987C12.3483 19.9934 12.2787 19.9681 12.2198 19.9256C12.1609 19.8831 12.1149 19.825 12.0871 19.7579C12.0593 19.6907 12.0506 19.6172 12.0622 19.5455L12.4772 17.1345L10.7202 15.4275C10.6677 15.3768 10.6306 15.3123 10.613 15.2416C10.5955 15.1708 10.5981 15.0965 10.6208 15.0271C10.6434 14.9578 10.6851 14.8962 10.741 14.8494C10.797 14.8026 10.8649 14.7725 10.9372 14.7625L13.3652 14.4105L14.4512 12.2175C14.4837 12.1521 14.5337 12.0972 14.5957 12.0588C14.6577 12.0204 14.7292 12 14.8022 12C14.8751 12 14.9466 12.0204 15.0086 12.0588C15.0707 12.0972 15.1207 12.1521 15.1532 12.2175L16.2392 14.4105L18.6672 14.7625C18.7392 14.7728 18.8069 14.8031 18.8626 14.85C18.9184 14.8968 18.9598 14.9583 18.9824 15.0275C19.005 15.0967 19.0078 15.1708 18.9904 15.2415C18.973 15.3122 18.9363 15.3766 18.8842 15.4275L17.1272 17.1345L17.5412 19.5445C17.5536 19.6163 17.5456 19.6902 17.5182 19.7578C17.4907 19.8254 17.4448 19.8839 17.3858 19.9267C17.3267 19.9695 17.2569 19.9949 17.1841 20C17.1114 20.005 17.0386 19.9896 16.9742 19.9555L14.8022 18.8175Z" stroke="#333333" stroke-width="2" stroke-linecap="round" stroke-linejoin="round"/>
</svg>
