<svg width="24" height="24" viewBox="0 0 24 24" fill="none" xmlns="http://www.w3.org/2000/svg">
<path d="M10.7969 18.3008C10.7969 17.903 10.9549 17.5214 11.2362 17.2401C11.5175 16.9588 11.8991 16.8008 12.2969 16.8008C12.6947 16.8008 13.0762 16.9588 13.3575 17.2401C13.6388 17.5214 13.7969 17.903 13.7969 18.3008C13.7969 18.6986 13.6388 19.0801 13.3575 19.3614C13.0762 19.6427 12.6947 19.8008 12.2969 19.8008C11.8991 19.8008 11.5175 19.6427 11.2362 19.3614C10.9549 19.0801 10.7969 18.6986 10.7969 18.3008ZM10.7969 12.3008C10.7969 11.903 10.9549 11.5214 11.2362 11.2401C11.5175 10.9588 11.8991 10.8008 12.2969 10.8008C12.6947 10.8008 13.0762 10.9588 13.3575 11.2401C13.6388 11.5214 13.7969 11.903 13.7969 12.3008C13.7969 12.6986 13.6388 13.0801 13.3575 13.3614C13.0762 13.6427 12.6947 13.8008 12.2969 13.8008C11.8991 13.8008 11.5175 13.6427 11.2362 13.3614C10.9549 13.0801 10.7969 12.6986 10.7969 12.3008ZM10.7969 6.30078C10.7969 5.90296 10.9549 5.52143 11.2362 5.24012C11.5175 4.95882 11.8991 4.80078 12.2969 4.80078C12.6947 4.80078 13.0762 4.95882 13.3575 5.24012C13.6388 5.52143 13.7969 5.90296 13.7969 6.30078C13.7969 6.69861 13.6388 7.08014 13.3575 7.36144C13.0762 7.64275 12.6947 7.80078 12.2969 7.80078C11.8991 7.80078 11.5175 7.64275 11.2362 7.36144C10.9549 7.08014 10.7969 6.69861 10.7969 6.30078Z" fill="#666666"/>
</svg>
