<svg width="16" height="17" viewBox="0 0 16 17" fill="none" xmlns="http://www.w3.org/2000/svg">
<path fill-rule="evenodd" clip-rule="evenodd" d="M3.07865 5.11094H5.98616V10.3372C5.98616 10.9733 6.48039 11.4926 7.08505 11.4926H8.91362C9.51961 11.4926 10.0132 10.9733 10.0132 10.3372V5.11094H12.9207L8.8111 0.376756C8.59492 0.127923 8.31953 0 7.99891 0C7.67829 0 7.40223 0.127913 7.18672 0.376756L3.07782 5.11094H3.07865ZM0.000170277 10.3701H2.72479V12.9809C2.72479 13.6169 3.21902 14.1363 3.82435 14.1363H12.1751C12.7805 14.1363 13.2747 13.6176 13.2747 12.9809V10.3701H16V15.0743C16 16.1346 15.1765 17 14.1674 17H1.83265C0.823551 17 0 16.1347 0 15.0743L0.000170277 10.3701Z" fill="#666666"/>
</svg>
